<svg id="Layer_3" enable-background="new 0 0 64 64" height="512" viewBox="0 0 64 64" width="512" xmlns="http://www.w3.org/2000/svg"><path d="m14 21h36v22h-36z" fill="#4472b2"/><path d="m23 21 4-4h10l4 4" fill="#8892a0"/><circle cx="44" cy="27" fill="#fff" r="2"/><circle cx="32" cy="32" fill="#fff" r="7"/><path d="m32 2c-16.569 0-30 13.431-30 30s13.431 30 30 30 30-13.431 30-30-13.431-30-30-30zm0 56c-14.359 0-26-11.641-26-26 0-6.161 2.143-11.821 5.724-16.276l36.553 36.553c-4.456 3.58-10.116 5.723-16.277 5.723zm20.276-9.724-36.552-36.552c4.455-3.581 10.115-5.724 16.276-5.724 14.359 0 26 11.641 26 26 0 6.161-2.143 11.821-5.724 16.276z" fill="#e47c6e"/></svg>